/* XPM */
static char *_c2b084a7d2a476fb15d96618cac35aaew3y1qmVSgdGZz10[] = {
/* columns rows colors chars-per-pixel */
"64 64 38 1 ",
"  c #EA1E0A",
". c #F5230F",
"X c #F6301E",
"o c #F73E2D",
"O c #F84C3C",
"+ c #FF1165",
"@ c #FF206F",
"# c #FF2F79",
"$ c #F95A4B",
"% c #F9685A",
"& c #FA7669",
"* c #7AC92B",
"= c #D9A35A",
"- c #FF3E83",
"; c #FF4D8D",
": c #00FFA5",
"> c #0FFFAA",
", c #1EFFAF",
"< c #1B8EC1",
"1 c #1D98CE",
"2 c #1FA2DB",
"3 c #29A9E1",
"4 c #36AEE3",
"5 c #43B3E5",
"6 c #50B8E7",
"7 c #5DBDE9",
"8 c #6AC2EB",
"9 c #77C8ED",
"0 c #84CDEF",
"q c #92D2F1",
"w c #A0D8F3",
"e c #AEDEF5",
"r c #BCE4F7",
"t c #CAE9F9",
"y c #D8EFFB",
"u c #E6F5FC",
"i c #F4FAFE",
"p c white",
/* pixels */
"<<<<<<<<<<<<<<<<<<<<<<<<<<<<<<<<<<<<<<<<<<<<<<<<<<<<<<<<<<<<<<<<",
"<<<<<<<<<<<<<<<<<<<<<<<<<<<<<<<<<<<<<<<<<<<<<<<<<<<<<<<<<<<<<<<<",
"<<<<<<<<<<<<<<<<<<<<<<<<<<<<<<<<<<<<<<<<<<<<<<<<<<<<<<<<<<<<<<<<",
"<<<<<<<<<<<<<<<<<<<<<<<<<<<<<<<<<<<<<<<<<<<<<<<<<<<<<<<<<<<<<<<<",
"<<<<<<11111111<<<<<<<<<<<<<<<<<<<<<<<<<<<<<<<<<<666600004444<<<<",
"<<<<<<11111111<<<<<<<<<<<<<<<<<<<<<<<<<<<<<<<<<<666600004444<<<<",
"2222224466666622<<<<<<<<<<<<<<<<<<<<<<<<<<<<5566wwwwqq0077773333",
"2222224466666622<<<<<<<<<<<<<<<<<<<<<<<<<<<<5566wwwwqq0077773333",
"8888886688888844222222<<<<<<<<<<<<<<<<<<11338899rrwwqq0077773333",
"8888886688888844222222<<<<<<<<<<<<<<<<<<11338899rrwwqq0077773333",
"8888wwwwrriiyyrrww8866<<<<<<<<<<<<<<<<<<4466qqwwrrwwrrrrqqqq5544",
"8888wwwwrriiyyrrww8866<<<<<<<<<<<<<<<<<<4466qqwwrrwwrrrrqqqq5544",
"8888wwqqeeuuttrrww8866<<<<<<<<<<<<<<<<<<4488eerr00qq9999ww778877",
"8888wwqqeeuuttrrww8866<<<<<<<<<<<<<<<<<<4488eerr00qq9999ww778877",
"qqwwyyqq99ww00wwww8866<<<<<<<<<<<<<<<<<<5599eepprryyttqqqq556644",
"qqwwyyqq99ww00wwww8866<<<<<<<<<<<<<<<<<<5599eepprryyttqqqq556644",
"5566009977008800006644<<<<<<<<<<<<<<<<<<446600yywwppiirrrr556644",
"5566009977008800006644<<<<<<<<<<<<<<<<<<446600yywwppiirrrr556644",
"5566663311<<<<<<<<<<<<<<<<<<<<<<<<<<<<<<113377eewwpptt0000114433",
"5566663311<<<<<<<<<<<<<<<<<<<<<<<<<<<<<<113377eewwpptt0000114433",
"5566663311<<<<<<<<<<<<<<<<<<<<<<<<<<<<<<111155qq00rr0055551111<<",
"5566663311<<<<<<<<<<<<<<<<<<<<<<<<<<<<<<111155qq00rr0055551111<<",
"<<<<<<<<<<<<<<<<<<<<<<<<<<<<<<<<<<<<<<<<<<<<<<<<<<33333333<<<<<<",
"<<<<<<<<<<<<<<<<<<<<<<<<<<<<<<<<<<<<<<<<<<<<<<<<<<33333333<<<<<<",
"<<<<<<<<<<<<<<<<<<<<<<<<<<<<<<<<<<<<<<<<<<<<<<<<<<<<<<<<<<<<<<<<",
"<<<<<<<<<<<<<<<<<<<<<<<<<<<<<<<<<<<<<<<<<<<<<<<<<<<<<<<<<<<<<<<<",
"<<<<<<<<<<<<<<<<<<<<<<<<<<<<<<<<<<<<<<<<<<<<<<<<<<<<<<<<<<<<<<<<",
"<<<<<<<<<<<<<<<<<<<<<<<<<<<<<<<<<<<<<<<<<<<<<<<<<<<<<<<<<<<<<<<<",
"<<<<<<<<<<<<<<<<<<<<<<<<<<<<<<<<<<<<<<<<<<<<<<<<<<<<<<<<<<<<<<<<",
"<<<<<<<<<<<<<<<<<<<<<<<<<<<<<<<<<<<<<<<<<<<<<<<<<<<<<<<<<<<<<<<<",
"<<<<<<<<<<<<<<<<<<<<<<<<<<<<<<<<<<<<<<<<<<<<<<<<<<<<<<<<<<<<<<<<",
"<<<<<<<<<<<<<<<<<<<<<<<<<<<<<<<<<<<<<<<<<<<<<<<<<<<<<<<<<<<<<<<<",
"<<<<<<<<<<<<<<<<<<<<<<<<<<<<<<<<<<<<<<<<<<<<<<<<<<<<<<<<<<<<<<<<",
"<<<<<<<<<<<<<<<<<<<<<<<<<<<<<<<<<<<<<<<<<<<<<<<<<<<<<<<<<<<<<<<<",
"<<<<<<<<<<<<<<<<<<<<<<<<<<<<<<<<<<<<<<<<<<<<    ..  oo&&  <<<<<<",
"<<<<<<<<<<<<<<<<<<<<<<<<<<<<<<<<<<<<<<<<<<<<    ..  oo&&  <<<<<<",
"<<<<<<<<<<<<<<<<<<<<<<<<<<<<<<<<<<<<<<<<<<  &&%%  ..%%OO  XX<<<<",
"<<<<<<<<<<<<<<<<<<<<<<<<<<<<<<<<<<<<<<<<<<  &&%%  ..%%OO  XX<<<<",
"<<<<<<<<<<<<<<<<<<<<<<<<<<<<<<<<<<<<<<<<    %%XX....      &&%%<<",
"<<<<<<<<<<<<<<<<<<<<<<<<<<<<<<<<<<<<<<<<    %%XX....      &&%%<<",
"<<<<<<<<<<<<<<<<<<<<<<<<<<<<<<<<<<<<<<    oo  XX  ..XX..        ",
"<<<<<<<<<<<<<<<<<<<<<<<<<<<<<<<<<<<<<<    oo  XX  ..XX..        ",
"<<<<<<<<<<<<<<<<<<<<<<<<<<<<<<<<<<<<<<  ooOO..    oo%%XX    ..$$",
"<<<<<<<<<<<<<<<<<<<<<<<<<<<<<<<<<<<<<<  ooOO..    oo%%XX    ..$$",
"<<<<<<<<<<<<<<<<<<<<<<<<<<<<<<<<<<<<<<<<<<<<<<<<========**<<<<<<",
"<<<<<<<<<<<<<<<<<<<<<<<<<<<<<<<<<<<<<<<<<<<<<<<<========**<<<<<<",
"<<<<<<<<<<<<<<<<<<<<<<<<<<<<<<<<<<<<<<<<<<<<<<<<========****<<<<",
"<<<<<<<<<<<<<<<<<<<<<<<<<<<<<<<<<<<<<<<<<<<<<<<<========****<<<<",
"<<<<<<<<<<<<<<<<<<**<<<<<<<<<<<<<<<<<<<<<<<<<<<<========<<****<<",
"<<<<<<<<<<<<<<<<<<**<<<<<<<<<<<<<<<<<<<<<<<<<<<<========<<****<<",
"<<<<**<<<<<<<<<<<<**<<<<<<<<<<<<<<<<<<<<<<<<<<<<========<<<<****",
"<<<<**<<<<<<<<<<<<**<<<<<<<<<<<<<<<<<<<<<<<<<<<<========<<<<****",
"<<<<****<<<<<<<<<<<<**<<<<<<<<<<**<<<<<<<<<<<<<<========<<<<**<<",
"<<<<****<<<<<<<<<<<<**<<<<<<<<<<**<<<<<<<<<<<<<<========<<<<**<<",
"<<<<<<<<**<<<<<<<<**<<<<<<****>>::**<<<<<<<<<<**========******<<",
"<<<<<<<<**<<<<<<<<**<<<<<<****>>::**<<<<<<<<<<**========******<<",
"**<<<<<<**<<<<<<@@##<<<<<<**>>>>>>,,<<<<<<<<****========<<<<**<<",
"**<<<<<<**<<<<<<@@##<<<<<<**>>>>>>,,<<<<<<<<****========<<<<**<<",
"**************++@@--;;**<<**<<====****<<<<<<**<<========<<<<**<<",
"**************++@@--;;**<<**<<====****<<<<<<**<<========<<<<**<<",
"****************====**********====**************========********",
"****************====**********====**************========********",
"****************************************************************",
"****************************************************************"
};
