/* XPM */
static char *_306694f91674eb4def1d53b93fb57cemiAEGys009I8jGU3[] = {
/* columns rows colors chars-per-pixel */
"64 64 57 1 ",
"  c black",
". c #110901",
"X c #1F1002",
"o c #2D1703",
"O c #301000",
"+ c #3B1F04",
"@ c #3B2104",
"# c #5D1F00",
"$ c #492705",
"% c #492905",
"& c #572F06",
"* c #573106",
"= c #6C2400",
"- c #653307",
"; c #653707",
": c #653907",
"> c #733A08",
", c #733F08",
"< c #734108",
"1 c #814109",
"2 c #814709",
"3 c #8E4A0A",
"4 c #8F4F0A",
"5 c #9C520B",
"6 c #9D570B",
"7 c #AB5F0C",
"8 c #B9670D",
"9 c #C6670E",
"0 c #C76F0E",
"q c #D46E0F",
"w c #D4770F",
"e c #E27F10",
"r c #F8EC07",
"t c #F8ED16",
"y c #F8EE25",
"u c #F8EF34",
"i c #C9FE54",
"p c #F9F043",
"a c #CEFE63",
"s c #D3FE72",
"d c #FAF261",
"f c #FAF370",
"g c #DDF786",
"h c #D8FE81",
"j c #DBFE90",
"k c #DDFE90",
"l c #E2FE9F",
"z c #E7FEAE",
"x c #EBFEBD",
"c c gray78",
"v c #D7D7D7",
"b c #F0FECC",
"n c #F4FEDB",
"m c #EFEFEF",
"M c #F9FEEA",
"N c #FDFFF9",
"B c white",
/* pixels */
"kkkkkkkkkkkkkkkkkkkkkkkkkkkkkkkkkkkkkkkkkkkkkkkkkkkkkkkkkkkkkkkk",
"kkkkkkkkkkkkkkkkkkkkkkkkkkkkkxxxxkkkkkkkkkkkkkkkkkkkkkkkkkkkkkkk",
"kkkkkkkkkkkkkkkkkkkkkkkkkkkkkxxxxkkkkkkkkkkkkkkkkkkkkkkllllkkkkk",
"kkkkkkkkkkkkkkkkkkkkkkkkkkkllbnbblkkkkkkkkkkkkkkkkkkkkkllllkkkkk",
"kkklllzlllkkkkkkkkkkkkkkkkkllbnbblkkkkkkkkkkkkkkkkkkkllzxzzlkkkk",
"kkkzzzxlllkkkkkkkkkkkkkkkkklzzxzllkkkkkkkkkkkkkkkkkkkllzxzzlkkkk",
"kkkzzxbzzlkkkkkkkkkkkkkkkkklzzxMllkbzzzzlkkkkkkkkkkkklllzlllkkkk",
"kkkzzxbzzlkkkkkkkkkb2672472,2;664,2;&&&&;;,;4;2kkkkkklllzlllkkkk",
"kkkllzzllkkkkkkkkll;;&8&&;6,42,4&&&;,,424,4&,2;;kkkkkkkkkkkkkkkk",
"kkkkkllllkkkkkkkkl;;,,,&&2,;;&;22446,;;&,,&&,,;;&kkkkkkkkkkkkkkk",
"kkkkkkkkkkkkkkkkk;;;,&,&&,,,,,&,2446,&&$&2,,62;;;,kkkkkkkkkkkkkk",
"kkkkkkkkkkkkkkkk&;;;2&;&&;;;;2$,,2672;&$&,;+2,;4&;&kkkkkkkkkkkkk",
"kkkkkkkkkkkkkkk;&;&&;&,&&2,,,,&,2466,&$$27720&;2&,&&kkkkkkkkkkkk",
"kkkkkkkkkkkkkkh,$,&&;&,&&,,,,2;,&;,,,&$&&,;+,$,2&&;&kkkkkkkkkkkk",
"kkkkkkkkkkkkkkh&44,,&;;&&,;;;;,;&;,,42,4,&,o;&$2&&;&kkkkkkkkkkkk",
"kkkkkkkkzzzzkkh,2422,,&&&,;;;,,,;,2264,,&;2,,O$&;2,&kkzzzzkkkkkk",
"kkkkkkkkzzxxllh,2222&;&&&2;;;;,;&;22&$o+&o$@$O;&,4;;kkzzzzkkkkkk",
"kkkkkkklxxbxllk,46,,&&&&;2,,;,&;&&,,$$oo&2877%&,,2&$klxbxxlkkkkk",
"kkkkkkklxxbxllk,26,,;&&&;2,,;4&2,,44++XX;2466+2478-*shzbxxlkkkkk",
"kkkkkkklllzlllk4,744,,&&;2;;&,&,,,,,XXXX;2447;4;63=<aaskkllkkkkk",
"kkkkkkkllllkkkl;,6,,&2&&;;&&$,&2,,22,,$$$&224;,;1>#:aaskkllkkkkk",
"kkkkkkkkkkkkkkl;,422;,;&&&;;;4;,,,22,,Xoo.&&2&;$2222aiashkkkkkkk",
"kkkkkkkkkkkkkkx;&4,,,;;&&;,,,2,;&&;;,,.X. &;,&&o+$&4hssshkkkkkkk",
"kkkkkkkkkkkkkkl;;&&&&;,&&22224;&;&;;,,.X .&;2&++o+&,kkkkkkkkkkkk",
"kkkkkkkkkkkkkkk,;2222;;$$2,22&;2,,,;,;+$o$;,2;+4,2e;kkkkkkkkkkkk",
"kkkkkkkkkkkkkkk222222&2$$6;,,+,2,,,,2,,2&;2462o2,27;klkkkkkkkkkk",
"kkkkkkkkkkkkkkk,;,,,,&,$$2244;;,,2222;,,;,2262o,++;okzkkkkkkkkkk",
"kkkkkkkkkkkkkkk,;,,,,&;;$4244;;,42222;,2;22242+4&&,oklkkkkkkkkkk",
"kkkkkkkkkkkkkkk4;;;;;&;;&,4442;;;2242&&&&;,,2,$2$$&oklkkkkkkkkkk",
"kkkkkkkkkkkkkkz;;;;;;&;;&;4444;,2444,$$&&;;;2$+,o$$okzkkkkkkkkkk",
"kkkkkkkkkkkkkkl;2,22,;,;&;,,,,;22442;$$&&;;;,+ $+;4&klkkkkkkkkkk",
"kkkkkkkkkkkkkkl,,;,2,,2,&,,,,2;746642&&,&4226+ $o&2&klkkkkkkkkkk",
"kkkkkkkkkkkkkkl;,;,2,,;,&;,,,2;46,,;;;;,;2446+.  .o&klkkkkkkkkkk",
"kkkkkkkkkkkkllx;,;,2,,;4&;,,,2;7;$$+;;;,;2224$&$o+o&kzkkkkkkkkkk",
"kkkkkkkkkkkkllz22;;2,,,2&,;;;,;,2+++;;;,;2226&4,;;o&lzllkkkkkkkk",
"kkkkkkkkkkkkllM;4;;,;;;2&;;;;;&;&ooo$&&&2;;;,&44;;o&lzllkkkkkkkk",
"kkkkkkkkkkllzzn;2;;,;;;2&;;;;;&;;++;222;2&&,8pd722&&zbllkkkkkkkk",
"kkkkkkkkkkllllN,2,;,;;;4&,$&&&;;,&&2222,;&;upuyfp;&&zxzlkkkkkkkk",
"kkkkkkkkkkllllM2,;;;;;&228774$&,2227722;;&,tr,&yr,&&zxzlllkkkkkk",
"kkkkkkkkkklllln,,;;;,,;4,7674$&,,8700222;;;;;,&;&2;;xxzlllkkkkkk",
"kkkkkkkkkkkkkkx,2;;;,,;2;6474$&228877;&;;&;;;,&;&,,,Nxzzllkkkkkk",
"kkkkkkkkkkkkkkl;;&;,,,;;;6674$$,,0844$+;;&;;;2$oX;,6Nxxzllkkkkkk",
"kkkkkkkkkkkkkkz;2,,4,,,4&$$;;&;;,4422;++;&44;,$o+240mxzlkkkkkkkk",
"kkkkkkkkkkkkkkl;4,;;++$&&&&;;&,&;4;,,,$o4;44&;$&280wblkkkkkkkkkk",
"kkkkkkkkkkkkkkz;2,;7224,;2222&;&&,&,,,;o2277;,$$7357glkkkkkkkkkk",
"kkkkkkkkkkkkkkl,2,;4;;,4;2222&;&&2&7774o2277,;$,09q0ckkkkkkkkkkk",
"kkkkkkkkkkkkkkz;;&$;&&;;,,,,,&;&&4&4446&$&&&,,&;7786jkkkkkkkkkkk",
"kkkkkkkkkkkkkkl22;;46666,222,&;;,,;2224&+;;;4&,$,667vkkkkkkkkkkk",
"kkkkkkkkkkkkkkz;,,,&;&&4,;;;&&,;4;,2222,o&&&4&7;&078Bkkkkkkkkkkk",
"kkkkkkkkkkkkkkz;,,,;2,,72;,,;;;;2;,2$+o  $&;6$72,7,,xkkkkkkkkkkk",
"kkkkkkkkkkklkkb;4,,;22272;,,;;;;2;,2$+$.X2467$477e74xkkkkkkkkkkk",
"kkkkkkkkkkkkkkb&2,,,;;,,,&;;;;;;,&;2$+X.X;,24$,8807,kkkkkkkkkkkk",
"kkkkkkkkkkkkkkz&,;;,;,6;;,,,,,;;;$$;ooXoX&;,2$;40we6kkkkkkkkkkkk",
"kkkkkkkkkkkkkkn&,;;,;,4;;;;;;;;;,&2224;4&;;;;&$,08w6lxnbbzkkkkkk",
"kkkkklzzzlkkkkz&,;;,;;6&&;,,,,;22&2224;4&;;;;&$&4262lxnbbzkkkkkk",
"kkkkklxxxzkkkzz;,;;;;,4;;,,,,,,2,;4426,426664,$$4,22zbMnbzkkkkkk",
"kkkkklxxxzkkkll;,;,;;,6;;,;;;;;,2,6626,,47776;&$;,;,zbBBNnkkkkkk",
"kkkkklxxxzkkkll;2;,;;,2;;;;;;;;,&$$$$;;+22276;&&4644llbbxxkkkkkk",
"kkkkkkllllkkkll;,;,;;,6;;,;;;;22&,2442,+;,,67&;;6744llbbxxkkkkkk",
"kkkkkkkkkkkkkkx&,;,,;;,&&;;;;;6,$&&;2,,+4&&2,&;;4822kkxxxxkkkkkk",
"kkkkkkkkkkkkkkz&2,,,;;6;;;;,,,,;$oo+,44&&2$,,&,;4822kkkkkkkkkkkk",
"kkkkkkkkkkkkkkb;,,,,;;4;;,;,,,2;4$$;6007474,;&,;7866kkkkkkkkkkkk",
"kkkkkkkkkkkkkkl,,,,,;;6;;,;,,;,;&+.X&78744,,;&,&8666kkkkkkkkkkkk",
"kkkkkkkkkkkkkkl&;;;;;;4;;2;,,;,;&oo+;776,;&&;&;&7666kkkkkkkkkkkk"
};
