/* XPM */
static char *bc7160ab4aef4f9b8a9b0ac37acc7cf8rAwobhkygLKTdxMu[] = {
/* columns rows colors chars-per-pixel */
"64 64 27 1 ",
"  c #3C3832",
". c #3AB609",
"X c #CE811A",
"o c #D9A35A",
"O c #E7CC7E",
"+ c #1E13D2",
"@ c #1B8EC1",
"# c #1D98CE",
"$ c #1FA2DB",
"% c #29A9E1",
"& c #36AEE3",
"* c #43B3E5",
"= c #50B8E7",
"- c #5DBDE9",
"; c #6AC2EB",
": c #77C8ED",
"> c #84CDEF",
", c #92D2F1",
"< c #A0D8F3",
"1 c #AEDEF5",
"2 c #BCE4F7",
"3 c #CAE9F9",
"4 c #D8EFFB",
"5 c #EAEAEA",
"6 c #E6F5FC",
"7 c #F4FAFE",
"8 c white",
/* pixels */
"@@@@@@@@@@@@@@@@@@@@@@@@@@@@$$******%%@@@@@@@@@@@@@@@@@@@@@@@@@@",
"@@@@@@@@@@@@@@@@@@@@@@@@@@@@$$******%%@@@@@@@@@@@@@@@@@@@@@@@@@@",
"@@@@@@@@########@@@@@@@@@@@@$$------**@@%%%%====%%%%@@@@@@@@@@@@",
"@@@@@@@@########@@@@@@@@@@@@$$------**@@%%%%====%%%%@@@@@@@@@@@@",
"@@@@####&&&&%%**$$$$$$@@@@$$&&::::--**##---->>::%%%%@@@@@@@@@@@@",
"@@@@####&&&&%%**$$$$$$@@@@$$&&::::--**##---->>::%%%%@@@@@@@@@@@@",
"####$$##&&&&&&==%%%%&&$$==;;;;1122<<>>==::114433--;;******@@@@@@",
"####$$##&&&&&&==%%%%&&$$==;;;;1122<<>>==::114433--;;******@@@@@@",
"%%**==**==&&&&==%%%%&&$$==;;==;;::--::;;,,334433--::;;>>11>>>>;;",
"%%**==**==&&&&==%%%%&&$$==;;==;;::--::;;,,334433--::;;>>11>>>>;;",
"%%11778888>>>>>>,,1111,,<<,,====--**--;;;;<<>>11::,,11,,11>>3311",
"%%11778888>>>>>>,,1111,,<<,,====--**--;;;;<<>>11::,,11,,11>>3311",
"%%11667744--;;-->><<<<,,<<,,====--**--;;**::-->>::22886688113311",
"%%11667744--;;-->><<<<,,<<,,====--**--;;**::-->>::22886688113311",
"$$<<4488881111,,::,,>>::==**$$$$$$@@$$%%%%%%##&&**::442244333311",
"$$<<4488881111,,::,,>>::==**$$$$$$@@$$%%%%%%##&&**::442244333311",
"==226688881111,,::,,>>::==**$$$$$$@@@@########&&**;;11::;;******",
"==226688881111,,::,,>>::==**$$$$$$@@@@########&&**;;11::;;******",
"====****========######@@@@$$$$$$$$@@@@########@@@@%%;;;;;;**@@@@",
"====****========######@@@@$$$$$$$$@@@@########@@@@%%;;;;;;**@@@@",
"====****======**@@@@@@@@@@@@@@@@@@@@@@@@@@@@@@@@@@@@$$$$$$$$@@@@",
"====****======**@@@@@@@@@@@@@@@@@@@@@@@@@@@@@@@@@@@@$$$$$$$$@@@@",
"====**&&@@@@@@@@@@@@@@@@@@@@@@@@@@@@@@@@@@@@@@@@@@@@@@@@@@@@@@@@",
"====**&&@@@@@@@@@@@@@@@@@@@@@@@@@@@@@@@@@@@@@@@@@@@@@@@@@@@@@@@@",
"@@@@@@@@@@@@@@@@@@@@@@@@@@@@@@@@@@@@@@@@@@@@@@@@@@@@@@@@@@@@@@@@",
"@@@@@@@@@@@@@@@@@@@@@@@@@@@@@@@@@@@@@@@@@@@@@@@@@@@@@@@@@@@@@@@@",
"@@@@@@@@@@@@@@@@@@@@@@@@@@@@@@@@@@@@@@@@@@@@@@@@@@@@@@@@@@@@@@@@",
"@@@@@@@@@@@@@@@@@@@@@@@@@@@@@@@@@@@@@@@@@@@@@@@@@@@@@@@@@@@@@@@@",
"@@@@@@@@@@@@@@@@@@@@@@@@@@@@@@@@@@@@@@@@@@@@@@@@@@@@@@@@@@@@@@@@",
"@@@@@@@@@@@@@@@@@@@@@@@@@@@@@@@@@@@@@@@@@@@@@@@@@@@@@@@@@@@@@@@@",
"@@@@@@@@@@@@@@@@@@@@@@@@@@@@@@@@@@@@@@@@@@@@@@@@@@@@@@@@@@@@@@@@",
"@@@@@@@@@@@@@@@@@@@@@@@@@@@@@@@@@@@@@@@@@@@@@@@@@@@@@@@@@@@@@@@@",
"@@@@@@@@@@@@@@@@@@@@@@@@@@++++@@@@@@@@@@@@@@@@@@@@@@@@@@@@@@@@@@",
"@@@@@@@@@@@@@@@@@@@@@@@@@@++++@@@@@@@@@@@@@@@@@@@@@@@@@@@@@@@@@@",
"@@@@@@@@@@@@@@@@@@@@@@@@++++++++@@@@@@@@@@@@@@@@@@@@@@@@@@@@@@@@",
"@@@@@@@@@@@@@@@@@@@@@@@@++++++++@@@@@@@@@@@@@@@@@@@@@@@@@@@@@@@@",
"@@@@@@@@@@@@@@@@@@@@@@XX@@OOOO@@XX@@@@@@@@@@@@@@@@@@@@@@@@@@@@@@",
"@@@@@@@@@@@@@@@@@@@@@@XX@@OOOO@@XX@@@@@@@@@@@@@@@@@@@@@@@@@@@@@@",
"@@@@@@@@@@@@@@@@@@@@@@XXXXXXXXXXXX@@@@@@@@@@@@@@@@@@@@@@@@@@@@@@",
"@@@@@@@@@@@@@@@@@@@@@@XXXXXXXXXXXX@@@@@@@@@@@@@@@@@@@@@@@@@@@@@@",
"@@@@@@@@@@@@@@@@@@@@XXXXXXXXXXXXXXXX@@@@@@@@@@@@@@@@@@@@@@@@@@@@",
"@@@@@@@@@@@@@@@@@@@@XXXXXXXXXXXXXXXX@@@@@@@@@@@@@@@@@@@@@@@@@@@@",
"@@@@@@@@@@@@@@@@@@@@XX55  XXXX  55XX@@@@@@..@@@@@@@@@@@@@@@@@@@@",
"@@@@@@@@@@@@@@@@@@@@XX55  XXXX  55XX@@@@@@..@@@@@@@@@@@@@@@@@@@@",
"@@@@@@@@@@@@@@@@@@@@XX5555..XX5555......@@..@@@@@@@@@@@@@@@@@@..",
"@@@@@@@@@@@@@@@@@@@@XX5555..XX5555......@@..@@@@@@@@@@@@@@@@@@..",
"@@@@....@@@@@@@@....@@XXXX..XXXX....@@@@@@@@..XX....@@@@........",
"@@@@....@@@@@@@@....@@XXXX..XXXX....@@@@@@@@..XX....@@@@........",
"@@@@@@..@@@@@@@@......XXXX..XX....@@@@@@XX........@@@@@@..@@@@@@",
"@@@@@@..@@@@@@@@......XXXX..XX....@@@@@@XX........@@@@@@..@@@@@@",
"@@@@@@....@@@@@@@@@@....XX......XX..@@XX......XX@@@@@@@@..@@@@@@",
"@@@@@@....@@@@@@@@@@....XX......XX..@@XX......XX@@@@@@@@..@@@@@@",
"@@@@..@@@@....@@@@@@@@XX....XX....@@XXXX......@@@@@@@@@@....@@@@",
"@@@@..@@@@....@@@@@@@@XX....XX....@@XXXX......@@@@@@@@@@....@@@@",
"@@..@@@@@@@@..@@@@@@..XXXX..XX..XXXXXXXX..XX....@@@@@@@@....@@@@",
"@@..@@@@@@@@..@@@@@@..XXXX..XX..XXXXXXXX..XX....@@@@@@@@....@@@@",
"@@@@..@@@@@@..@@@@@@XX..XX..XX..XXXXXX@@..@@@@....@@@@....@@@@@@",
"@@@@..@@@@@@..@@@@@@XX..XX..XX..XXXXXX@@..@@@@....@@@@....@@@@@@",
"@@@@@@..@@@@....@@@@XX..XX..XX..XXXX@@@@..@@@@@@@@..@@......@@@@",
"@@@@@@..@@@@....@@@@XX..XX..XX..XXXX@@@@..@@@@@@@@..@@......@@@@",
"@@......@@@@..@@@@..oo..oo..oo..ooXX......@@@@................@@",
"@@......@@@@..@@@@..oo..oo..oo..ooXX......@@@@................@@",
"................................................................",
"................................................................"
};
