/* XPM */
static char *_fcfc00cd10b4cc8de891b0293bb27eaRMnyRzxyBrINbmrP[] = {
/* columns rows colors chars-per-pixel */
"64 64 11 1 ",
"  c black",
". c #DDFE90",
"X c #E2FE9F",
"o c #E7FEAE",
"O c #EBFEBD",
"+ c #F590FE",
"@ c #F0FECC",
"# c #F4FEDB",
"$ c #F9FEEA",
"% c #FDFFF9",
"& c white",
/* pixels */
"................................................................",
".............................OOOO...............................",
".............................OOOO......................XXXX.....",
"...........................XX@#@@X.....................XXXX.....",
"...XXXoXXX.................XX@#@@X...................XXoOooX....",
"...oooOXXX.................XooOoXX...................XXoOooX....",
"...ooO@ooX.................XooOoXX...................XXXoXXX....",
"...ooO@ooX..................XXXX.....................XXXoXXX....",
"...XXooXX...................XXXX................................",
".....XXXX.......................................................",
"................................................................",
"................................................................",
"................................................................",
"................................................................",
"........................XoooX............XXXX...................",
"........oooo............XoooX............XXXX.........oooo......",
"........ooOOXX.........XO@@@oXX..........@###X........oooo......",
".......XOO@OXX.........XO###OXX..........#$$$X......XXO@OOX.....",
".......XOO@OXX.........XoOOOoXX..........@###X......XXO@OOX.....",
".......XXXoXXX.........XoOOOoXX..........@###X......XXXoXXX.....",
".......XXXX..............XXX++++++++++...XXXX.......XXXoXXX.....",
".........................++++++++++++++++.......................",
"........................++++++++++++++++++......................",
"......................++++++++++++++++++++++....................",
".....................++++++++++++++++++++++++...................",
"....................++++++++++++++++++++++++++..................",
"....................++++++++++++++++++++++++++..................",
"...................++++++++++++++++++++++++++++.................",
"...................++++++++++++++++++++++++++++.................",
"..................++++++++%%++++++++%%++++++++++................",
"..................+++++++%%%%++++++%%%%+++++++++................",
"..................+++++++%% %++++++% %%+++++++++................",
"..................+++++++%% %++++++% %%+++++++++................",
"............XXXX..+++++++%%%%++++++%%%%+++++++++................",
"............XXXX..++++++++%%++++++++%%++++++++++................",
"............XX@@O++++++++++++++++++++++++++++++++...OOOO........",
"..........XXoo@@++++++++++++++    +++++++++++++++++.OOOO........",
"..........XXXX@++++++++++++++++++++++++++++++++++++O$$#O........",
"..........XXXX+++++++++++++++++++++++++++++++++++++O$$$@XX......",
"..........XXXX++++++++++++++++++++++++++++++++++++++###oXX......",
".............+++++++++++++++++++++++++++++++++++++++###oXX......",
".............+++++++++++++++++++++++++++++++++++++++ooOoXX......",
".............++++++++++++++++++++++++++++++++++++++++ooX........",
".............++++++++++++++++++++++++++++++++++++++++...........",
"..............+++++++++++++++++++++++++++++++++++++++...........",
"................++++++++++++++++++++++++++++++++++++............",
".............................XXXoXo.............................",
".............................XXXo...............................",
".............................XXXo...............................",
"................................................................",
"...........X....................................................",
"................................................................",
"................................................................",
".........................XXXX......................XXO#@@o......",
".....XoooX...............XXXX......................XXO#@@o......",
".....XOOOo...............XXXX......................Xo@$#@o......",
".....XOOOo...............XoooX.....................Xo@&&%#......",
".....XOOOo..............XXOO@@oo....................XX@@OO......",
"......XXXX..............Xo@@#@oo....................XX@@OO......",
"........................Xo@@#@oo......................OOOO......",
"........................XoOO@Ooo................................",
".........................XXXX...................................",
"................................................................",
"................................................................"
};
