/* XPM */
static char *e857eb1eb60f470dd5f2a741282e46d2fngvkC5LADwelm7P[] = {
/* columns rows colors chars-per-pixel */
"64 64 3 1 ",
"  c black",
". c #B01D1D",
"X c #E8D7D7",
/* pixels */
"................................................................",
"................................................................",
"................................................................",
"................................................................",
"................................................................",
"................................................................",
"................................................................",
"................................................................",
"............XXXXXXXXXXXXXXXXXXXXXXXXXXXXXXXXXXXXXXXX............",
"............XXXXXXXXXXXXXXXXXXXXXXXXXXXXXXXXXXXXXXXX............",
"............XXXXXXXXXXXXXXXXXXXXXXXXXXXXXXXXXXXXXXXX............",
"............XXXXXXXXXXXXXXXXXXXXXXXXXXXXXXXXXXXXXXXX............",
"............XXXXXXXXXXXXXXXXXXXXXXXXXXXXXXXXXXXXXXXX............",
"............XXXXXXXXXXXXXXXXXXXXXXXXXXXXXXXXXXXXXXXX............",
"............XXXXXXXXXXXXXXXXXXXXXXXXXXXXXXXXXXXXXXXX............",
"............XXXXXXXXXXXXXXXXXXXXXXXXXXXXXXXXXXXXXXXX............",
"............XXXX        XXXXXXXXXXXXXX        XXXXXX............",
"............XXXX        XXXXXXXXXXXXXX        XXXXXX............",
"............XXXX        XXXXXXXXXXXXXX        XXXXXX............",
"............XXXX        XXXXXXXXXXXXXX        XXXXXX............",
"............XXXX        XXXXXXXXXXXXXX        XXXXXX............",
"............XXXX        XXXXXXXXXXXXXX        XXXXXX............",
"............XXXX        XXXXXXXXXXXXXX        XXXXXX............",
"............XXXX        XXXXXXXXXXXXXX        XXXXXX............",
"............XXXXXXXXXXXXXXXXXXXXXXXXXXXXXXXXXXXXXXXX............",
"............XXXXXXXXXXXXXXXXXXXXXXXXXXXXXXXXXXXXXXXX............",
"............XXXXXXXXXXXXXXXXXXXXXXXXXXXXXXXXXXXXXXXX............",
"............XXXXXXXXXXXXXXXXXXXXXXXXXXXXXXXXXXXXXXXX............",
"............XXXXXXXXXXXXXXXXXXXXXXXXXXXXXXXXXXXXXXXX............",
"............XXXXXXXXXXXXXXXXXXXXXXXXXXXXXXXXXXXXXXXX............",
"............XXXXXXXXXXXXXXXXXXXXXXXXXXXXXXXXXXXXXXXX............",
"............XXXXXXXXXXXXXXXXXXXXXXXXXXXXXXXXXXXXXXXX............",
"............XXXXXXXXXXXXXXXXXXXXXXXXXXXXXXXXXXXXXXXX............",
"............XXXXXXXXXXXXXXXXXXXXXXXXXXXXXXXXXXXXXXXX............",
"............XXXXXXXXXXXXXXXXXXXXXXXXXXXXXXXXXXXXXXXX............",
"............XXXXXXXXXXXXXXXXXXXXXXXXXXXXXXXXXXXXXXXX............",
"............XXXXXXXXXXXXXXXXXXXXXXXXXXXXXXXXXXXXXXXX............",
"............XXXXXXXXXXXXXXXXXXXXXXXXXXXXXXXXXXXXXXXX............",
"............XXXXXXXXXXXXXXXXXXXXXXXXXXXXXXXXXXXXXXXX............",
"............XXXXXXXXXXXXXXXXXXXXXXXXXXXXXXXXXXXXXXXX............",
"................................................................",
"................................................................",
"................................................................",
"................................................................",
"................................................................",
"................................................................",
"................................................................",
"................................................................",
"................................................................",
"................................................................",
"................................................................",
"................................................................",
"................................................................",
"................................................................",
"................................................................",
"................................................................",
"................................................................",
"................................................................",
"................................................................",
"................................................................",
"................................................................",
"................................................................",
"................................................................",
"................................................................"
};
