/* XPM */
static char *_8bbbcba799b4c3f843bab01e6e7fbbcLRhLSUf8SySUiL00[] = {
/* columns rows colors chars-per-pixel */
"64 64 7 1 ",
"  c #3AB609",
". c #26FF00",
"X c #FFF700",
"o c #E7CC7E",
"O c #DA64EE",
"+ c #1B8EC1",
"@ c #5FCDFD",
/* pixels */
"++++++++++++++++++++++++++@@@@@@@@++++++++++++++++++++++++++++++",
"++++++++++++++++++++++++++@@@@@@@@++++++++++++++++++++++++++++++",
"++++++++++++++++++++++@@@@@@@@@@@@@@++++++++++++++++++++++++++++",
"++++++++++++++++++++++@@@@@@@@@@@@@@++++++++++++++++++++++++++++",
"++++++++++++++++++@@@@@@@@@@@@@@@@@@@@@@@@++++++++++++++++++++++",
"++++++++++++++++++@@@@@@@@@@@@@@@@@@@@@@@@++++++++++++++++++++++",
"++++++++++++++++++@@@@@@@@@@@@@@@@@@@@@@@@++++++++++++++++++++++",
"++++++++++++++++++@@@@@@@@@@@@@@@@@@@@@@@@++++++++++++++++++++++",
"++++++++++++++++++++++++++++++@@@@@@@@@@@@@@++++++++++++++++++@@",
"++++++++++++++++++++++++++++++@@@@@@@@@@@@@@++++++++++++++++++@@",
"++++++@@@@@@++++++++++++++++++@@@@@@@@@@@@@@++++++++++++++@@@@@@",
"++++++@@@@@@++++++++++++++++++@@@@@@@@@@@@@@++++++++++++++@@@@@@",
"@@@@@@@@@@@@@@++++++++++++++++++++++++++++++++++++++++++@@@@@@@@",
"@@@@@@@@@@@@@@++++++++++++++++++++++++++++++++++++++++++@@@@@@@@",
"@@@@@@@@@@@@@@@@++++++++++++++++++++++++++++++++++++++@@@@@@@@@@",
"@@@@@@@@@@@@@@@@++++++++++++++++++++++++++++++++++++++@@@@@@@@@@",
"@@@@@@@@@@@@@@@@@@@@++++++++++++++++++++++++++++@@@@@@@@@@@@@@@@",
"@@@@@@@@@@@@@@@@@@@@++++++++++++++++++++++++++++@@@@@@@@@@@@@@@@",
"@@@@@@@@@@@@@@@@@@@@++++++++++++++@@@@@@@@@@@@@@@@@@@@@@@@@@@@@@",
"@@@@@@@@@@@@@@@@@@@@++++++++++++++@@@@@@@@@@@@@@@@@@@@@@@@@@@@@@",
"@@@@@@@@@@@@@@@@++++++++++++++++++@@@@@@@@@@@@@@@@@@@@@@@@@@@@@@",
"@@@@@@@@@@@@@@@@++++++++++++++++++@@@@@@@@@@@@@@@@@@@@@@@@@@@@@@",
"@@@@@@@@@@++++++++++++++++++++++++@@@@@@@@@@@@@@@@@@@@@@@@@@@@++",
"@@@@@@@@@@++++++++++++++++++++++++@@@@@@@@@@@@@@@@@@@@@@@@@@@@++",
"++++++++++++++++++++++++++++++++++++@@@@@@@@@@@@@@@@@@@@@@++++++",
"++++++++++++++++++++++++++++++++++++@@@@@@@@@@@@@@@@@@@@@@++++++",
"++++++++++++++++++++++++++++++++++++++@@@@@@@@@@@@@@@@++++++++++",
"++++++++++++++++++++++++++++++++++++++@@@@@@@@@@@@@@@@++++++++++",
"++++++++++++++++++++++++++++++++++++++++++++++++++++++++++++++++",
"++++++++++++++++++++++++++++++++++++++++++++++++++++++++++++++++",
"++++++++++++++++++++++++++++++++++++++++++++++++++++++++++++++++",
"++++++++++++++++++++++++++++++++++++++++++++++++++++++++++++++++",
"++++++++++++++++++++++++++++++++++++++++++++++++++++++++++++++++",
"++++++++++++++++++++++++++++++++++++++++++++++++++++++++++++++++",
"++++++++++++++++++++++++++++++++++++++++++++++++++++++++++++++++",
"++++++++++++++++++++++++++++++++++++++++++++++++++++++++++++++++",
"++++++++++++++++++++++++++++++++++++++++++++++++++++++++++++++++",
"++++++++++++++++++++++++++++++++++++++++++++++++++++++++++++++++",
"++++++++++++++++++++++++++++++++++++++++++++++++++++++++++++++++",
"++++++++++++++++++++++++++++++++++++++++++++++++++++++++++++++++",
"++++++++++++++++++++++++++++++++++++++++++++++++++++++++++++++++",
"++++++++++++++++++++++++++++++++++++++++++++++++++++++++++++++++",
"++++++++++++++++++++++++++++++++++++++++++++++++++++++++++++++++",
"++++++++++++++++++++++++++++++++++++++++++++++++++++++++++++++++",
"++++++++++++++++++++++++++++++++++++++++++++++++++++++++++++++++",
"++++++++++++++++++++++++++++++++++++++++++++++++++++++++++++++++",
"++++++........++++++++++++++++++++++++++++++++++++++++++++++++++",
"++++++........++++++++++++++++++++++++++++++++++++++++++++++++++",
"++++............++++++++++++++++++++++++++++++++++++++++++++++++",
"++++............++++++++++++++++++++++++++++++++++++++++++++++++",
"++++++++oooo++++++++++++++++++++++  ++++++++++++++++++++++++++++",
"++++++++oooo++++++++++++++++++++++  ++++++++++++++++++++++++++++",
"++++  ++oooo++++++++++++++++++    ++++++++  ++++++++++++++  ++++",
"++++  ++oooo++++++++++++++++++    ++++++++  ++++++++++++++  ++++",
"++  ++++oooo++++++++  ++++++++  ++++++++++OOOO++++++++++++  ++++",
"++  ++++oooo++++++++  ++++++++  ++++++++++OOOO++++++++++++  ++++",
"++++  ++oooo++++++++++XXXXXX++  ++++++++OOOOOOOO++++++++  ++++++",
"++++  ++oooo++++++++++XXXXXX++  ++++++++OOOOOOOO++++++++  ++++++",
"++++++  oooo++  ++++XXXXXXXXXX  ++++++OOOOOOOOOOOO++++++    ++++",
"++++++  oooo++  ++++XXXXXXXXXX  ++++++OOOOOOOOOOOO++++++    ++++",
"++      oooo  ++++  ++++oo  ++  ++++  ++++oooo    ++++        ++",
"++      oooo  ++++  ++++oo  ++  ++++  ++++oooo    ++++        ++",
"                                                                ",
"                                                                "
};
