/* XPM */
static char *_4d98bff8cc140f2effcda4369a4a2dcoJ2UXQAlC9ssyZWV[] = {
/* columns rows colors chars-per-pixel */
"64 64 64 1 ",
"  c black",
". c #223A0B",
"X c #6B3F03",
"o c #2A470E",
"O c #325410",
"+ c #3A6113",
"@ c #7A4802",
"# c #7A4805",
"$ c #426E16",
"% c #4A7B19",
"& c #864B08",
"* c #895107",
"= c #985A03",
"- c #985A07",
"; c #945309",
": c #A76303",
"> c #A76309",
", c #B66C09",
"< c #C5750A",
"1 c #D47E0B",
"2 c #D17E0C",
"3 c #3AB609",
"4 c #52881C",
"5 c #5A951F",
"6 c #72BC1F",
"7 c #62A222",
"8 c #6AAF25",
"9 c #72BC28",
"0 c #3FC50A",
"q c #44D40B",
"w c #49E30C",
"e c #4EF20D",
"r c #59F31C",
"t c #7AC92B",
"y c #6FF53A",
"u c #7AF649",
"i c #E3870C",
"p c #F2900D",
"a c #F3971C",
"s c #82D624",
"d c #9ADC57",
"f c #1B8EC1",
"g c #1D98CE",
"h c #1FA2DB",
"j c #29A9E1",
"k c #36AEE3",
"l c #32BEFD",
"z c #43B3E5",
"x c #50B8E7",
"c c #5DBDE9",
"v c #5FCDFD",
"b c #6AC2EB",
"n c #77C8ED",
"m c #BAE88B",
"M c #84CDEF",
"N c #92D2F1",
"B c #A0D8F3",
"V c #AEDEF5",
"C c #BCE4F7",
"Z c #CAE9F9",
"A c #D8EFFB",
"S c #E6F5FC",
"D c #F4FAFE",
"F c white",
/* pixels */
"ffffffffffffffffffffffffffffhhhhxxAAFFFFSSccggffffffffffffffffff",
"ffffffffffffffffffffffffffffhhhhxxAAFFFFSSccggffffffffffffffffff",
"ffffhhhhcccczzzzffffffffffffhhhhxxAAFFFFSSccggtt88++77887788ffff",
"ffffhhhhcccczzzzffffffffffffhhhhxxAAFFFFSSccggtt88++77887788ffff",
"ffggkkzzMMMMccbbjjbbnnccccgghhbbAAFFFFFFFFccgg%%77999999778877ff",
"ffggkkzzMMMMccbbjjbbnnccccgghhbbAAFFFFFFFFccgg%%77999999778877ff",
"ffggccnnCCDDAAAANNFFFFSSFFxxxxVVSSFFFFFFFFcc99++99998844995599ff",
"ffggccnnCCDDAAAANNFFFFSSFFxxxxVVSSFFFFFFFFcc99++99998844995599ff",
"ffxxZZSSFFFFFFFFNNFFFFSSFFNNZZFFFFFFAAnnhhll555577tt99887788tt99",
"ffxxZZSSFFFFFFFFNNFFFFSSFFNNZZFFFFFFAAnnhhll555577tt99887788tt99",
"ffxxVVZZFFDDZZZZNNFFFFSSFFNNZZFFFFFFAAnnhh9988889988998899995555",
"ffxxVVZZFFDDZZZZNNFFFFSSFFNNZZFFFFFFAAnnhh9988889988998899995555",
"ffzzNNBBAAZZVVBBbbCCMMMMCCMMZZAAZZnntt88oo88tttttt88999988889988",
"ffzzNNBBAAZZVVBBbbCCMMMMCCMMZZAAZZnntt88oo88tttttt88999988889988",
"ffzzbbbbBBcckkkkffffffffffzznnnnnnkktt4499tt998888tt7777778877tt",
"ffzzbbbbBBcckkkkffffffffffzznnnnnnkktt4499tt998888tt7777778877tt",
"ffffffffffffffffffffffffffffffffffff++4488888877tt88tt8844tt7777",
"ffffffffffffffffffffffffffffffffffff++4488888877tt88tt8844tt7777",
"ffffffffffffffhhhhhhhhfffffffffffftt774488tttttt$$8899tt77887788",
"ffffffffffffffhhhhhhhhfffffffffffftt774488tttttt$$8899tt77887788",
"ffffffffffffffhhhhhhhhffffffffffffvv4455tt..77tt88++tt88OO55tt88",
"ffffffffffffffhhhhhhhhffffffffffffvv4455tt..77tt88++tt88OO55tt88",
"ffffffffffffffhhhhhhhhffffffffffffvvtt448899999988$$tt7799445588",
"ffffffffffffffhhhhhhhhffffffffffffvvtt448899999988$$tt7799445588",
"ffffffffffffffhhhhhhhhffffffffffffff77tttt  8855ss4488tt++999999",
"ffffffffffffffhhhhhhhhffffffffffffff77tttt  8855ss4488tt++999999",
"ffffffggggggggffffffffffffffffffffffffvv889988tttttt++tt88tt7744",
"ffffffggggggggffffffffffffffffffffffffvv889988tttttt++tt88tt7744",
"ffffffgggggghhggggggffffffffffffffffffffffff7799ddmm55tt6699..55",
"ffffffgggggghhggggggffffffffffffffffffffffff7799ddmm55tt6699..55",
"ffffffggccccnnbbcccczzzzffffffffffffffffffff5588++9955++88447799",
"ffffffggccccnnbbcccczzzzffffffffffffffffffff5588++9955++88447799",
"ffffffzzNNNNSSBBVVVVccccfffffffffffffffffffffffffftt77888888ttff",
"ffffffzzNNNNSSBBVVVVccccfffffffffffffffffffffffffftt77888888ttff",
"ffffffkkMMMMAABBVVDDVVVVxxggffffffffffffffffffffffff,,--<<,,ffff",
"ffffffkkMMMMAABBVVDDVVVVxxggffffffffffffffffffffffff,,--<<,,ffff",
"ffffffkkMMMMZZNNBBSSVVVVxxggffffffffffffffffffffffffpp11<<<<ffff",
"ffffffkkMMMMZZNNBBSSVVVVxxggffffffffffffffffffffffffpp11<<<<ffff",
"ffffffkkkkkkbbkkxxNNbbbbxxggffffffffffffffffffffffff>><<<<iiffff",
"ffffffkkkkkkbbkkxxNNbbbbxxggffffffffffffffffffffffff>><<<<iiffff",
"ffffffffffffffffffzzxxxxxxggffffffffffffffffffffffffii::11>>ffff",
"ffffffffffffffffffzzxxxxxxggffffffffffffffffffffffffii::11>>ffff",
"ffffffffffffffffffffffffffffffffffffffffffffffffffff,,<<ii00ffff",
"ffffffffffffffffffffffffffffffffffffffffffffffffffff,,<<ii00ffff",
"ffffffffffffffffffffffffffffffffffffffffffffffffffff>>;;0011ffff",
"ffffffffffffffffffffffffffffffffffffffffffffffffffff>>;;0011ffff",
"ffffffffffffffffffffffffffffffffffffffffffffffffffff>>@@33,,ffff",
"ffffffffffffffffffffffffffffffffffffffffffffffffffff>>@@33,,ffff",
"ffffffffffffffffffffffffffffffffffffffffffffffffffff--**3311ffff",
"ffffffffffffffffffffffffffffffffffffffffffffffffffff--**3311ffff",
"ffffffffffffffffffffffffffffffffffffffffffffffffffff-->>**00ffff",
"ffffffffffffffffffffffffffffffffffffffffffffffffffff-->>**00ffff",
"ffffffffffffffffffffffffffffffffffffffffffffffffffff>>==**wwffff",
"ffffffffffffffffffffffffffffffffffffffffffffffffffff>>==**wwffff",
"ff00ffffffffff33ggffffffffffffffffffffffffff00ff00ff**<<ww--ffff",
"ff00ffffffffff33ggffffffffffffffffffffffffff00ff00ff**<<ww--ffff",
"ffff00ffffffffqqffffffffffffffffffffffffffyyffffff00**aaXX33ff00",
"ffff00ffffffffqqffffffffffffffffffffffffffyyffffff00**aaXX33ff00",
"ffff33ffffff33rrffffffffffffffffffffffffffffqqffff**00--@@33ff00",
"ffff33ffffff33rrffffffffffffffffffffffffffffqqffff**00--@@33ff00",
"ff33qq33ffff33ffffffffffffffffffffffffffffff00ffff##00&&22yy**33",
"ff33qq33ffff33ffffffffffffffffffffffffffffff00ffff##00&&22yy**33",
"eeqq333333330033uu333333rr33333333uu33wwee33eewwrr333300ee3333qq",
"eeqq333333330033uu333333rr33333333uu33wwee33eewwrr333300ee3333qq"
};
