/* XPM */
static char *_b07b03dc57a4f0ae8317326b582bbfdMCvao8C6QLu3n6RG[] = {
/* columns rows colors chars-per-pixel */
"64 64 19 1 ",
"  c #572F06",
". c #9D0A00",
"X c #AC0B00",
"o c #BB0C00",
"O c #CA0D00",
"+ c #D90E00",
"@ c #E80F00",
"# c #F71000",
"$ c #FF1707",
"% c #FF2516",
"& c #DDFE90",
"* c #E2FE9F",
"= c #E7FEAE",
"- c #EBFEBD",
"; c #F0FECC",
": c #F4FEDB",
"> c #F9FEEA",
", c #FDFFF9",
"< c white",
/* pixels */
"&&&&&&&&&&&&&&&&&&&&&&&&&&&&&&&&&&&&&&&&&&&&&&&&&&&&&&&&&&&&&&&&",
"&&&&&&&&&&&&&&&&&&&&&&&&&&&&&----&&&&&&&&&&&&&&&&&&&&&&&&&&&&&&&",
"&&&&&&&&&&&&&&&&&&&&&&&&&&&&&----&&&&&&&&&&&&&&&&&&&&&&****&&&&&",
"&&&&&&&&&&&&&&&&&&&&&&&&&&&**;:;;*&&&&&&&&&&&&&&&&&&&&&****&&&&&",
"&&&***=***&&&&&&&&&&&&&&&&&**;:;;*&&&&&&&&&&&&&&&&&&&**=-==*&&&&",
"&&&===-***&&&&&&&&&&&&&&&&&*==-=**&&&&&&&&&&&&&&&&&&&**=-==*&&&&",
"&&&==-;==*&&&&&&&&&&&&&&&&&*==-=**&&&&&&&&&&&&&&&&&&&***=***&&&&",
"&&&==-;==*&&&&&&&&&&&&&&&&&&****&&&&&&&&&&&&&&&&&&&&&***=***&&&&",
"&&&**==**&&&&&&&&&&&&&&&&&&&****&&&&&&&&&&&&&&&&&&&&&&&&&&&&&&&&",
"&&&&&****&&&&&&&&&&&&&&&&&&&&&&&&&&&&&&&&&&&&&&&&&&&&&&&&&&&&&&&",
"&&&&&&&&&&&&&&&&&&&&&&&&&&&&&&&&&&&&&&&&&&&&&&&&&&&&&&&&&&&&&&&&",
"&&&&&&&&&&&&&&&&&&&&&&&&&&&&&&&&&&&&&&&&&&&&&&&&&&&&&&&&&&&&&&&&",
"&&&&&&&&&&&&&&&&&&&&&&&&&&&&&&&&&&&&&&&&&&&&&&&&&&&&&&&&&&&&&&&&",
"&&&&&&&&&&&&&&&&&&&&&&&&&&&&&&&&&&&&&&&&&&&&&&&&&&&&&&&&&&&&&&&&",
"&&&&&&&&&&&&&&&&&&&&&&&&*===*&&&&&&&&&&&&****&&&&&&&&&&&&&&&&&&&",
"&&&&&&&&====&&&&&&&&&&&&*===*&&&&&&&&&&&&****&&&&&&&&&====&&&&&&",
"&&&&&&&&==--**&&&&&&&&&*-  ;=**&&&&&&&&&&;:::*&&&&&&&&====&&&&&&",
"&&&&&&&*--;-**&&&&&&&&&*-:: -**&&&&&&&&&&:>>>*&&&&&&**-;--*&&&&&",
"&&&&&&&*--;-**&&&&&&&&&*=--- **&&&&&&&&&&;:::*&&&&&&**-;--*&&&&&",
"&&&&&&&***=***&&&&&&&&&*=---=  &&&&&&&&&&;:::*&&&&&&***=***&&&&&",
"&&&&&&&****&&&&&&&&&&&&&&**... ....&&&&&&****&&&&&&&***=***&&&&&",
"&&&&&&&&&&&&&&&&&&&&&&&&&..XO.  X+...&&&&&&&&&&&&&&&&&&&&&&&&&&&",
"&&&&&&&&&&&&&&&&&&&&&&&&.X+..X.o.OXO+.&&&&&&&&&&&&&&&&&&&&&&&&&&",
"&&&&&&&&&&&&&&&&&&&&&&&.XXoXo.OXX.oOOX.&&&&&&&&&&&&&&&&&&&&&&&&&",
"&&&&&&&&&&&&&&&&&&&&&&.+O.OXO.o.o$.OXoX.&&&&&&&&&&&&&&&&&&&&&&&&",
"&&&&&&&&&&&&&&&&&&&&&.oX.O.OOXXX@+XXXXX..&&&&&&&&&&&&&&&&&&&&&&&",
"&&&&&&&&&&&&&&&&&&&&&..o.X.....o.OX+XXXX.&&&&&&&&&&&&&&&&&&&&&&&",
"&&&&&&&&&&&&&&&&&&&&.XoX...#$.OooXXXOXoXo.&&&&&&&&&&&&&&&&&&&&&&",
"&&&&&&&&&&&&&&&&&&&&..X.O@XXoO.X+.XO.oXXX.&&&&&&&&&&&&&&&&&&&&&&",
"&&&&&&&&&&&&&&&&&&&&.O..oO...XXXo.Xo..Xo@.&&&&&&&&&&&&&&&&&&&&&&",
"&&&&&&&&&&&&&&&&&&&&.@..X.oX....O..XXX.+o.&&&&&&&&&&&&&&&&&&&&&&",
"&&&&&&&&&&&&&&&&&&&&.oXXXX..Xoo..X...O..o.&&&&&&&&&&&&&&&&&&&&&&",
"&&&&&&&&&&&&&&&&&&&&.X..o..+XoOo.X.XX.X.X.&&&&&&&&&&&&&&&&&&&&&&",
"&&&&&&&&&&&&****&&&&X.o.XX...%.XO.oXo.XXOX&&&&&&&&&&&&&&&&&&&&&&",
"&&&&&&&&&&&&****&&&&...#X.XOOOXoX....oOX..&&&&&&&&&&&&&&&&&&&&&&",
"&&&&&&&&&&&&**;;--&&&Xo.XXX.@XO...OX.Xoo.&&&&&&&&&&&----&&&&&&&&",
"&&&&&&&&&&**==;;--&&&.ooX+o....Xo..o.X.X.&&&&&&&&&&&----&&&&&&&&",
"&&&&&&&&&&****;;;;&&&&X..O.+XXXXXXX..X..&&&&&&&&&&*->>:-&&&&&&&&",
"&&&&&&&&&&****;;;;&&&&&o.o.$...X..ooXX.&&&&&&&&&&&*->>>;**&&&&&&",
"&&&&&&&&&&********&&&&&&.oXX..X.X.X.X.&&&&&&&&&&&&*;:::=**&&&&&&",
"&&&&&&&&&&&&&&****&&&&&&&..oX...oX...&&&&&&&&&&&&&*;:::=**&&&&&&",
"&&&&&&&&&&&&&&&&&&&&&&&&&&&...X....&&&&&&&&&&&&&&&&*==-=**&&&&&&",
"&&&&&&&&&&&&&&&&&&&&&&&&&&&&&&&&====&&&&&&&&&&&&&&&*===*&&&&&&&&",
"&&&&&&&&&&&&&&&&&&&&&&&&&&&&&&&&====&&&&&&&&&&&&&&&&&&&&&&&&&&&&",
"&&&&&&&&&&&&&&&&&&&&&&&&&&&&&&&&====&&&&&&&&&&&&&&&&&&&&&&&&&&&&",
"&&&&&&&&&&&&&&&&&&&&&&&&&&&&&***;-;;**&&&&&&&&&&&&&&&&&&&&&&&&&&",
"&&&&&&&&&&&&&&&&&&&&&&&&&&&&&***=*==**&&&&&&&&&&&&&&&&&&&&&&&&&&",
"&&&&&&&&&&&&&&&&&&&&&&&&&&&&&***=*==**&&&&&&&&&&&&&&&&&&&&&&&&&&",
"&&&&&&&&&&&&&&&&&&&&&&&&&&&&&***=*==**&&&&&&&&&&&&&&&&&&&&&&&&&&",
"&&&&&&&&&&&&&&&&&&&&&&&&&&&&&&&&&&&&&&&&&&&&&&&&&&&&&&&&&&&&&&&&",
"&&&&&&&&&&&*&&&&&&&&&&&&&&&&&&&&&&&&&&&&&&&&&&&&&&&&&&&&&&&&&&&&",
"&&&&&&&&&&&&&&&&&&&&&&&&&&&&&&&&&&&&&&&&&&&&&&&&&&&&&&&&&&&&&&&&",
"&&&&&&&&&&&&&&&&&&&&&&&&&&&&&&&&&&&&&&&&&&&&&&&&&&&&&&&&&&&&&&&&",
"&&&&&&&&&&&&&&&&&&&&&&&&&****&&&&&&&&&&&&&&&&&&&&&&**-:;;=&&&&&&",
"&&&&&*===*&&&&&&&&&&&&&&&****&&&&&&&&&&&&&&&&&&&&&&**-:;;=&&&&&&",
"&&&&&*---=&&&&&&&&&&&&&&&****&&&&&&&&&&&&&&&&&&&&&&*=;>:;=&&&&&&",
"&&&&&*---=&&&&&&&&&&&&&&&*===*&&&&&&&&&&&&&&&&&&&&&*=;<<,:&&&&&&",
"&&&&&*---=&&&&&&&&&&&&&&**--;;==&&&&&&&&&&&&&&&&&&&&**;;--&&&&&&",
"&&&&&&****&&&&&&&&&&&&&&*=;;:;==&&&&&&&&&&&&&&&&&&&&**;;--&&&&&&",
"&&&&&&&&&&&&&&&&&&&&&&&&*=;;:;==&&&&&&&&&&&&&&&&&&&&&&----&&&&&&",
"&&&&&&&&&&&&&&&&&&&&&&&&*=--;-==&&&&&&&&&&&&&&&&&&&&&&&&&&&&&&&&",
"&&&&&&&&&&&&&&&&&&&&&&&&&****&&&&&&&&&&&&&&&&&&&&&&&&&&&&&&&&&&&",
"&&&&&&&&&&&&&&&&&&&&&&&&&&&&&&&&&&&&&&&&&&&&&&&&&&&&&&&&&&&&&&&&",
"&&&&&&&&&&&&&&&&&&&&&&&&&&&&&&&&&&&&&&&&&&&&&&&&&&&&&&&&&&&&&&&&"
};
